<mxfile host="app.diagrams.net" agent="Mozilla/5.0 (Windows NT 10.0; Win64; x64) AppleWebKit/537.36 (KHTML, like Gecko) Chrome/140.0.0.0 Safari/537.36 Edg/140.0.0.0" version="28.2.4">
  <diagram name="Page-1" id="fdDb_Myl37PAuaQ8_w7R">
    <mxGraphModel grid="1" page="1" gridSize="10" guides="1" tooltips="1" connect="1" arrows="1" fold="1" pageScale="1" pageWidth="827" pageHeight="1169" background="#ffffff" math="0" shadow="0">
      <root>
        <mxCell id="0" />
        <mxCell id="1" parent="0" />
        <mxCell id="-fsawPVUWkPRRmqvCutC-18" value="" style="rounded=0;whiteSpace=wrap;html=1;" vertex="1" parent="1">
          <mxGeometry x="1920" y="1260" width="830" height="1180" as="geometry" />
        </mxCell>
        <mxCell id="fMx6wqxQnJzOyqXqfQoJ-1" value="" style="rounded=0;whiteSpace=wrap;html=1;" vertex="1" parent="1">
          <mxGeometry width="830" height="1180" as="geometry" />
        </mxCell>
        <mxCell id="805hcmTVErdqekozYT9V-1" value="&lt;font style=&quot;font-size: 20px;&quot;&gt;PocketDeen&lt;/font&gt;" style="rounded=0;whiteSpace=wrap;html=1;fillColor=#d5e8d4;strokeColor=#82b366;" vertex="1" parent="1">
          <mxGeometry x="-1" width="827" height="200" as="geometry" />
        </mxCell>
        <mxCell id="805hcmTVErdqekozYT9V-2" value="&lt;font style=&quot;font-size: 17px;&quot;&gt;_&lt;/font&gt;&lt;div&gt;&lt;font style=&quot;font-size: 17px;&quot;&gt;_&lt;/font&gt;&lt;/div&gt;&lt;div&gt;&lt;font style=&quot;font-size: 17px;&quot;&gt;_&lt;/font&gt;&lt;/div&gt;" style="whiteSpace=wrap;html=1;" vertex="1" parent="1">
          <mxGeometry width="50" height="70" as="geometry" />
        </mxCell>
        <mxCell id="805hcmTVErdqekozYT9V-5" value="&lt;span style=&quot;font-size: 26px;&quot;&gt;supplications&amp;nbsp;&lt;/span&gt;" style="rounded=0;whiteSpace=wrap;html=1;fillColor=#ffe6cc;strokeColor=#d79b00;" vertex="1" parent="1">
          <mxGeometry y="200" width="230" height="280" as="geometry" />
        </mxCell>
        <mxCell id="iSZPZbHc6knosvzS08QK-1" style="edgeStyle=orthogonalEdgeStyle;rounded=0;orthogonalLoop=1;jettySize=auto;html=1;exitX=1;exitY=0.5;exitDx=0;exitDy=0;" edge="1" parent="1" source="805hcmTVErdqekozYT9V-6" target="iSZPZbHc6knosvzS08QK-3">
          <mxGeometry relative="1" as="geometry">
            <mxPoint x="920" y="1420" as="targetPoint" />
          </mxGeometry>
        </mxCell>
        <mxCell id="-fsawPVUWkPRRmqvCutC-8" style="edgeStyle=orthogonalEdgeStyle;rounded=0;orthogonalLoop=1;jettySize=auto;html=1;exitX=1;exitY=0.5;exitDx=0;exitDy=0;" edge="1" parent="1" source="805hcmTVErdqekozYT9V-6" target="-fsawPVUWkPRRmqvCutC-7">
          <mxGeometry relative="1" as="geometry">
            <Array as="points">
              <mxPoint x="910" y="340" />
              <mxPoint x="910" y="1200" />
              <mxPoint x="1615" y="1200" />
            </Array>
          </mxGeometry>
        </mxCell>
        <mxCell id="805hcmTVErdqekozYT9V-6" value="&lt;font style=&quot;font-size: 21px;&quot;&gt;(text of supplications)&lt;/font&gt;" style="rounded=0;whiteSpace=wrap;html=1;fillColor=#ffe6cc;strokeColor=#d79b00;" vertex="1" parent="1">
          <mxGeometry x="350" y="200" width="476" height="280" as="geometry" />
        </mxCell>
        <mxCell id="805hcmTVErdqekozYT9V-9" value="&lt;font style=&quot;font-size: 24px;&quot;&gt;Articles&amp;nbsp;&lt;/font&gt;" style="rounded=0;whiteSpace=wrap;html=1;fillColor=#f5f5f5;fontColor=#333333;strokeColor=#666666;" vertex="1" parent="1">
          <mxGeometry y="530" width="826" height="210" as="geometry" />
        </mxCell>
        <mxCell id="fMx6wqxQnJzOyqXqfQoJ-40" style="edgeStyle=orthogonalEdgeStyle;rounded=0;orthogonalLoop=1;jettySize=auto;html=1;exitX=0.5;exitY=1;exitDx=0;exitDy=0;entryX=0.5;entryY=1;entryDx=0;entryDy=0;" edge="1" parent="1" source="805hcmTVErdqekozYT9V-10" target="fMx6wqxQnJzOyqXqfQoJ-36">
          <mxGeometry relative="1" as="geometry">
            <Array as="points">
              <mxPoint x="80" y="900" />
              <mxPoint x="-230" y="900" />
              <mxPoint x="-230" y="560" />
            </Array>
          </mxGeometry>
        </mxCell>
        <mxCell id="805hcmTVErdqekozYT9V-10" value="&lt;div&gt;&lt;font style=&quot;font-size: 18px;&quot;&gt;&lt;br&gt;&lt;/font&gt;&lt;/div&gt;&lt;div&gt;&lt;font style=&quot;font-size: 18px;&quot;&gt;0&lt;/font&gt;&lt;/div&gt;&lt;div&gt;&lt;span style=&quot;font-size: 16px;&quot;&gt;//_&lt;/span&gt;&lt;/div&gt;&lt;font style=&quot;font-size: 16px;&quot;&gt;Prayer&lt;/font&gt;&amp;nbsp;" style="rounded=0;whiteSpace=wrap;html=1;" vertex="1" parent="1">
          <mxGeometry y="760" width="160" height="120" as="geometry" />
        </mxCell>
        <mxCell id="fMx6wqxQnJzOyqXqfQoJ-41" style="edgeStyle=orthogonalEdgeStyle;rounded=0;orthogonalLoop=1;jettySize=auto;html=1;exitX=0.5;exitY=1;exitDx=0;exitDy=0;" edge="1" parent="1" source="805hcmTVErdqekozYT9V-12">
          <mxGeometry relative="1" as="geometry">
            <mxPoint x="-229.99999999999977" y="559.9999999999998" as="targetPoint" />
          </mxGeometry>
        </mxCell>
        <mxCell id="805hcmTVErdqekozYT9V-12" value="&lt;div&gt;&lt;span style=&quot;font-size: 18px;&quot;&gt;|--|&lt;/span&gt;&lt;/div&gt;&lt;div&gt;&lt;span style=&quot;font-size: 18px;&quot;&gt;|--|&lt;/span&gt;&lt;/div&gt;&lt;div&gt;&lt;span style=&quot;background-color: transparent; color: light-dark(rgb(0, 0, 0), rgb(255, 255, 255)); font-size: 18px;&quot;&gt;Quran&lt;/span&gt;&lt;/div&gt;&lt;div&gt;&lt;span style=&quot;background-color: transparent; color: light-dark(rgb(0, 0, 0), rgb(255, 255, 255)); font-size: 18px;&quot;&gt;&lt;br&gt;&lt;/span&gt;&lt;/div&gt;" style="rounded=0;whiteSpace=wrap;html=1;" vertex="1" parent="1">
          <mxGeometry x="220" y="760" width="160" height="120" as="geometry" />
        </mxCell>
        <mxCell id="fMx6wqxQnJzOyqXqfQoJ-42" style="edgeStyle=orthogonalEdgeStyle;rounded=0;orthogonalLoop=1;jettySize=auto;html=1;exitX=0.5;exitY=1;exitDx=0;exitDy=0;" edge="1" parent="1" source="805hcmTVErdqekozYT9V-13" target="fMx6wqxQnJzOyqXqfQoJ-36">
          <mxGeometry relative="1" as="geometry">
            <Array as="points">
              <mxPoint x="520" y="900" />
              <mxPoint x="-230" y="900" />
            </Array>
          </mxGeometry>
        </mxCell>
        <mxCell id="805hcmTVErdqekozYT9V-13" value="&lt;div&gt;&lt;span style=&quot;font-size: 18px;&quot;&gt;(&lt;/span&gt;&lt;font style=&quot;font-size: 13px;&quot;&gt;/&lt;/font&gt;&lt;span style=&quot;font-size: 18px;&quot;&gt;)&lt;/span&gt;&lt;/div&gt;&lt;font style=&quot;font-size: 18px;&quot;&gt;Navigation&amp;nbsp;&lt;/font&gt;" style="rounded=0;whiteSpace=wrap;html=1;" vertex="1" parent="1">
          <mxGeometry x="440" y="760" width="160" height="120" as="geometry" />
        </mxCell>
        <mxCell id="fMx6wqxQnJzOyqXqfQoJ-43" style="edgeStyle=orthogonalEdgeStyle;rounded=0;orthogonalLoop=1;jettySize=auto;html=1;exitX=0.5;exitY=1;exitDx=0;exitDy=0;" edge="1" parent="1" source="805hcmTVErdqekozYT9V-14">
          <mxGeometry relative="1" as="geometry">
            <mxPoint x="-229.99999999999977" y="549.9999999999998" as="targetPoint" />
          </mxGeometry>
        </mxCell>
        <mxCell id="805hcmTVErdqekozYT9V-14" value="&lt;div&gt;&lt;span style=&quot;font-weight: 700; color: rgba(0, 0, 0, 0.8); font-family: Roboto, Helvetica, sans-serif; font-size: 18px; text-align: left; background-color: rgb(240, 243, 255);&quot;&gt;🤝&lt;/span&gt;&lt;/div&gt;&lt;span style=&quot;font-size: 18px;&quot;&gt;community support&lt;/span&gt;" style="rounded=0;whiteSpace=wrap;html=1;" vertex="1" parent="1">
          <mxGeometry x="666" y="760" width="160" height="120" as="geometry" />
        </mxCell>
        <mxCell id="805hcmTVErdqekozYT9V-15" value="" style="rounded=0;whiteSpace=wrap;html=1;fillColor=#fff2cc;strokeColor=#d6b656;" vertex="1" parent="1">
          <mxGeometry x="-1" y="919" width="831" height="261" as="geometry" />
        </mxCell>
        <mxCell id="fMx6wqxQnJzOyqXqfQoJ-5" value="&lt;div&gt;&lt;span style=&quot;font-size: 24px;&quot;&gt;&lt;b&gt;Prayers&lt;span style=&quot;white-space: pre;&quot;&gt;&#x9;&lt;/span&gt;&lt;span style=&quot;white-space: pre;&quot;&gt;&#x9;&lt;/span&gt;&lt;span style=&quot;white-space: pre;&quot;&gt;&#x9;&lt;/span&gt;&lt;span style=&quot;white-space: pre;&quot;&gt;&#x9;&lt;/span&gt;&lt;span style=&quot;white-space: pre;&quot;&gt;&#x9;&lt;/span&gt;&lt;span style=&quot;white-space: pre;&quot;&gt;&#x9;&lt;/span&gt;&lt;span style=&quot;white-space: pre;&quot;&gt;&#x9;&lt;/span&gt;&lt;span style=&quot;white-space: pre;&quot;&gt;&#x9;&lt;/span&gt;&lt;span style=&quot;white-space: pre;&quot;&gt;&#x9;&lt;/span&gt;&lt;span style=&quot;white-space: pre;&quot;&gt;&#x9;&lt;/span&gt;&lt;span style=&quot;white-space: pre;&quot;&gt;&#x9;&lt;/span&gt;&lt;span style=&quot;white-space: pre;&quot;&gt;&#x9;&lt;/span&gt;&lt;span style=&quot;white-space: pre;&quot;&gt;&#x9;&lt;/span&gt;&lt;span style=&quot;white-space: pre;&quot;&gt;&#x9;&lt;/span&gt;&lt;span style=&quot;white-space: pre;&quot;&gt;&#x9;&lt;/span&gt;&lt;span style=&quot;white-space: pre;&quot;&gt;&#x9;&lt;span style=&quot;white-space: pre;&quot;&gt;&#x9;&lt;/span&gt;Times&lt;/span&gt;&lt;/b&gt;&lt;/span&gt;&lt;/div&gt;&lt;u&gt;&lt;font style=&quot;font-size: 24px;&quot;&gt;Fajr&lt;span style=&quot;white-space: pre;&quot;&gt;&#x9;&lt;/span&gt;&lt;span style=&quot;white-space: pre;&quot;&gt;&#x9;&lt;/span&gt;&lt;span style=&quot;white-space: pre;&quot;&gt;&#x9;&lt;/span&gt;&lt;span style=&quot;white-space: pre;&quot;&gt;&#x9;&lt;/span&gt;&lt;span style=&quot;white-space: pre;&quot;&gt;&#x9;&lt;/span&gt;&lt;span style=&quot;white-space: pre;&quot;&gt;&#x9;&lt;/span&gt;&lt;span style=&quot;white-space: pre;&quot;&gt;&#x9;&lt;/span&gt;&lt;span style=&quot;white-space: pre;&quot;&gt;&#x9;&lt;/span&gt;&lt;span style=&quot;white-space: pre;&quot;&gt;&#x9;&lt;/span&gt;&lt;span style=&quot;white-space: pre;&quot;&gt;&#x9;&lt;/span&gt;&lt;span style=&quot;white-space: pre;&quot;&gt;&#x9;&lt;/span&gt;&lt;span style=&quot;white-space: pre;&quot;&gt;&#x9;&lt;/span&gt;&lt;span style=&quot;white-space: pre;&quot;&gt;&#x9;&lt;/span&gt;&lt;span style=&quot;white-space: pre;&quot;&gt;&#x9;&lt;/span&gt;&lt;span style=&quot;white-space: pre;&quot;&gt;&#x9;&lt;/span&gt;&lt;span style=&quot;white-space: pre;&quot;&gt;&#x9;&lt;/span&gt;&lt;span style=&quot;white-space: pre;&quot;&gt;&#x9;&lt;/span&gt;&lt;span style=&quot;white-space: pre;&quot;&gt;&#x9;&lt;span style=&quot;white-space: pre;&quot;&gt;&#x9;&lt;/span&gt;5&lt;/span&gt;:00&lt;/font&gt;&lt;/u&gt;&lt;div&gt;&lt;div&gt;&lt;u&gt;&lt;font style=&quot;font-size: 24px;&quot;&gt;Dhur&lt;span style=&quot;white-space: pre;&quot;&gt;&#x9;&lt;/span&gt;&lt;span style=&quot;white-space: pre;&quot;&gt;&#x9;&lt;/span&gt;&lt;span style=&quot;white-space: pre;&quot;&gt;&#x9;&lt;/span&gt;&lt;span style=&quot;white-space: pre;&quot;&gt;&#x9;&lt;/span&gt;&lt;span style=&quot;white-space: pre;&quot;&gt;&#x9;&lt;/span&gt;&lt;span style=&quot;white-space: pre;&quot;&gt;&#x9;&lt;/span&gt;&lt;span style=&quot;white-space: pre;&quot;&gt;&#x9;&lt;/span&gt;&lt;span style=&quot;white-space: pre;&quot;&gt;&#x9;&lt;/span&gt;&lt;span style=&quot;white-space: pre;&quot;&gt;&#x9;&lt;/span&gt;&lt;span style=&quot;white-space: pre;&quot;&gt;&#x9;&lt;/span&gt;&lt;span style=&quot;white-space: pre;&quot;&gt;&#x9;&lt;/span&gt;&lt;span style=&quot;white-space: pre;&quot;&gt;&#x9;&lt;/span&gt;&lt;span style=&quot;white-space: pre;&quot;&gt;&#x9;&lt;/span&gt;&lt;span style=&quot;white-space: pre;&quot;&gt;&#x9;&lt;/span&gt;&lt;span style=&quot;white-space: pre;&quot;&gt;&#x9;&lt;/span&gt;&lt;span style=&quot;white-space: pre;&quot;&gt;&#x9;&lt;/span&gt;&lt;span style=&quot;white-space: pre;&quot;&gt;&#x9;&lt;/span&gt;&lt;span style=&quot;white-space: pre;&quot;&gt;&#x9;&lt;/span&gt;1:0&lt;/font&gt;&lt;span style=&quot;font-size: 24px; background-color: transparent; color: light-dark(rgb(0, 0, 0), rgb(255, 255, 255));&quot;&gt;0&lt;/span&gt;&lt;/u&gt;&lt;/div&gt;&lt;div&gt;&lt;font style=&quot;font-size: 24px;&quot;&gt;&lt;u&gt;Asr&lt;span style=&quot;white-space: pre;&quot;&gt;&#x9;&lt;/span&gt;&lt;span style=&quot;white-space: pre;&quot;&gt;&#x9;&lt;/span&gt;&lt;span style=&quot;white-space: pre;&quot;&gt;&#x9;&lt;/span&gt;&lt;span style=&quot;white-space: pre;&quot;&gt;&#x9;&lt;/span&gt;&lt;span style=&quot;white-space: pre;&quot;&gt;&#x9;&lt;/span&gt;&lt;span style=&quot;white-space: pre;&quot;&gt;&#x9;&lt;/span&gt;&lt;span style=&quot;white-space: pre;&quot;&gt;&#x9;&lt;/span&gt;&lt;span style=&quot;white-space: pre;&quot;&gt;&#x9;&lt;/span&gt;&lt;span style=&quot;white-space: pre;&quot;&gt;&#x9;&lt;/span&gt;&lt;span style=&quot;white-space: pre;&quot;&gt;&#x9;&lt;/span&gt;&lt;span style=&quot;white-space: pre;&quot;&gt;&#x9;&lt;/span&gt;&lt;span style=&quot;white-space: pre;&quot;&gt;&#x9;&lt;/span&gt;&lt;span style=&quot;white-space: pre;&quot;&gt;&#x9;&lt;/span&gt;&lt;span style=&quot;white-space: pre;&quot;&gt;&#x9;&lt;/span&gt;&lt;span style=&quot;white-space: pre;&quot;&gt;&#x9;&lt;/span&gt;&lt;span style=&quot;white-space: pre;&quot;&gt;&#x9;&lt;/span&gt;&lt;span style=&quot;white-space: pre;&quot;&gt;&#x9;&lt;/span&gt;&lt;span style=&quot;white-space: pre;&quot;&gt;&#x9;&lt;/span&gt;&lt;span style=&quot;white-space: pre;&quot;&gt;&#x9;&lt;/span&gt;4:30&lt;/u&gt;&lt;/font&gt;&lt;/div&gt;&lt;div&gt;&lt;font style=&quot;font-size: 24px;&quot;&gt;&lt;u&gt;Maghrib&lt;span style=&quot;white-space: pre;&quot;&gt;&#x9;&lt;/span&gt;&lt;span style=&quot;white-space: pre;&quot;&gt;&#x9;&lt;/span&gt;&lt;span style=&quot;white-space: pre;&quot;&gt;&#x9;&lt;/span&gt;&lt;span style=&quot;white-space: pre;&quot;&gt;&#x9;&lt;/span&gt;&lt;span style=&quot;white-space: pre;&quot;&gt;&#x9;&lt;/span&gt;&lt;span style=&quot;white-space: pre;&quot;&gt;&#x9;&lt;/span&gt;&lt;span style=&quot;white-space: pre;&quot;&gt;&#x9;&lt;/span&gt;&lt;span style=&quot;white-space: pre;&quot;&gt;&#x9;&lt;/span&gt;&lt;span style=&quot;white-space: pre;&quot;&gt;&#x9;&lt;/span&gt;&lt;span style=&quot;white-space: pre;&quot;&gt;&#x9;&lt;/span&gt;&lt;span style=&quot;white-space: pre;&quot;&gt;&#x9;&lt;/span&gt;&lt;span style=&quot;white-space: pre;&quot;&gt;&#x9;&lt;/span&gt;&lt;span style=&quot;white-space: pre;&quot;&gt;&#x9;&lt;/span&gt;&lt;span style=&quot;white-space: pre;&quot;&gt;&#x9;&lt;/span&gt;&lt;span style=&quot;white-space: pre;&quot;&gt;&#x9;&lt;/span&gt;&lt;span style=&quot;white-space: pre;&quot;&gt;&#x9;&lt;/span&gt;&lt;span style=&quot;white-space: pre;&quot;&gt;&#x9;&lt;/span&gt;7:30&lt;/u&gt;&lt;/font&gt;&lt;/div&gt;&lt;div&gt;&lt;font style=&quot;font-size: 24px;&quot;&gt;&lt;u&gt;Isha&lt;span style=&quot;white-space: pre;&quot;&gt;&#x9;&lt;/span&gt;&lt;span style=&quot;white-space: pre;&quot;&gt;&#x9;&lt;/span&gt;&lt;span style=&quot;white-space: pre;&quot;&gt;&#x9;&lt;/span&gt;&lt;span style=&quot;white-space: pre;&quot;&gt;&#x9;&lt;/span&gt;&lt;span style=&quot;white-space: pre;&quot;&gt;&#x9;&lt;/span&gt;&lt;span style=&quot;white-space: pre;&quot;&gt;&#x9;&lt;/span&gt;&lt;span style=&quot;white-space: pre;&quot;&gt;&#x9;&lt;/span&gt;&lt;span style=&quot;white-space: pre;&quot;&gt;&#x9;&lt;/span&gt;&lt;span style=&quot;white-space: pre;&quot;&gt;&#x9;&lt;/span&gt;&lt;span style=&quot;white-space: pre;&quot;&gt;&#x9;&lt;/span&gt;&lt;span style=&quot;white-space: pre;&quot;&gt;&#x9;&lt;/span&gt;&lt;span style=&quot;white-space: pre;&quot;&gt;&#x9;&lt;/span&gt;&lt;span style=&quot;white-space: pre;&quot;&gt;&#x9;&lt;/span&gt;&lt;span style=&quot;white-space: pre;&quot;&gt;&#x9;&lt;/span&gt;&lt;span style=&quot;white-space: pre;&quot;&gt;&#x9;&lt;/span&gt;&lt;span style=&quot;white-space: pre;&quot;&gt;&#x9;&lt;/span&gt;&lt;span style=&quot;white-space: pre;&quot;&gt;&#x9;&lt;/span&gt;&lt;span style=&quot;white-space: pre;&quot;&gt;&#x9;&lt;/span&gt;&lt;span style=&quot;white-space: pre;&quot;&gt;&#x9;&lt;/span&gt;8:00&lt;/u&gt;&lt;/font&gt;&lt;/div&gt;&lt;/div&gt;" style="rounded=1;whiteSpace=wrap;html=1;fillColor=#FFE2A8;strokeColor=#d6b656;align=left;" vertex="1" parent="1">
          <mxGeometry x="37.5" y="949" width="750" height="211" as="geometry" />
        </mxCell>
        <mxCell id="fMx6wqxQnJzOyqXqfQoJ-8" value="" style="rounded=0;whiteSpace=wrap;html=1;" vertex="1" parent="1">
          <mxGeometry x="1000" width="830" height="1180" as="geometry" />
        </mxCell>
        <mxCell id="fMx6wqxQnJzOyqXqfQoJ-9" value="&lt;font style=&quot;font-size: 30px;&quot;&gt;Prayers&lt;/font&gt;" style="rounded=0;whiteSpace=wrap;html=1;fillColor=#d5e8d4;strokeColor=#82b366;" vertex="1" parent="1">
          <mxGeometry x="1000" width="830" height="240" as="geometry" />
        </mxCell>
        <mxCell id="fMx6wqxQnJzOyqXqfQoJ-12" value="&lt;font style=&quot;font-size: 24px;&quot;&gt;&lt;b&gt;How to pray as a men&lt;/b&gt;&lt;/font&gt;&lt;div&gt;&lt;font style=&quot;font-size: 24px;&quot;&gt;&lt;b&gt;step by step&lt;/b&gt;&lt;/font&gt;&lt;/div&gt;" style="rounded=0;whiteSpace=wrap;html=1;fillColor=#f5f5f5;strokeColor=#666666;fontColor=#333333;" vertex="1" parent="1">
          <mxGeometry x="1000" y="240" width="830" height="150" as="geometry" />
        </mxCell>
        <mxCell id="fMx6wqxQnJzOyqXqfQoJ-13" value="&lt;font style=&quot;font-size: 15px;&quot;&gt;text about how to pray&amp;nbsp;&lt;/font&gt;" style="rounded=0;whiteSpace=wrap;html=1;" vertex="1" parent="1">
          <mxGeometry x="1000" y="390" width="830" height="290" as="geometry" />
        </mxCell>
        <mxCell id="fMx6wqxQnJzOyqXqfQoJ-15" value="&lt;font style=&quot;font-size: 24px;&quot;&gt;&lt;b&gt;How to pray as a Women&lt;/b&gt;&lt;/font&gt;&lt;div&gt;&lt;font style=&quot;font-size: 24px;&quot;&gt;&lt;b&gt;step by step&lt;/b&gt;&lt;/font&gt;&lt;/div&gt;" style="rounded=0;whiteSpace=wrap;html=1;fillColor=#f5f5f5;strokeColor=#666666;fontColor=#333333;" vertex="1" parent="1">
          <mxGeometry x="1000" y="680" width="830" height="150" as="geometry" />
        </mxCell>
        <mxCell id="fMx6wqxQnJzOyqXqfQoJ-16" value="&lt;font style=&quot;font-size: 15px;&quot;&gt;Text about how to pray&amp;nbsp;&lt;/font&gt;" style="rounded=0;whiteSpace=wrap;html=1;" vertex="1" parent="1">
          <mxGeometry x="1000" y="830" width="830" height="350" as="geometry" />
        </mxCell>
        <mxCell id="fMx6wqxQnJzOyqXqfQoJ-17" value="&lt;font style=&quot;font-size: 23px;&quot;&gt;&lt;b&gt;link to community support&lt;/b&gt;&lt;/font&gt;" style="rounded=0;whiteSpace=wrap;html=1;" vertex="1" parent="1">
          <mxGeometry x="1620" y="1040" width="210" height="140" as="geometry" />
        </mxCell>
        <mxCell id="fMx6wqxQnJzOyqXqfQoJ-19" value="" style="rounded=0;whiteSpace=wrap;html=1;" vertex="1" parent="1">
          <mxGeometry x="1920" width="830" height="1180" as="geometry" />
        </mxCell>
        <mxCell id="fMx6wqxQnJzOyqXqfQoJ-21" value="&lt;span style=&quot;font-size: 30px;&quot;&gt;Navigation&amp;nbsp;&lt;/span&gt;" style="rounded=0;whiteSpace=wrap;html=1;fillColor=#d5e8d4;strokeColor=#82b366;" vertex="1" parent="1">
          <mxGeometry x="1920" width="830" height="240" as="geometry" />
        </mxCell>
        <mxCell id="fMx6wqxQnJzOyqXqfQoJ-22" value="&lt;font style=&quot;font-size: 18px;&quot;&gt;Direction of prayer&lt;/font&gt;&lt;div&gt;&lt;font style=&quot;font-size: 18px;&quot;&gt;(works on phone)&lt;/font&gt;&lt;/div&gt;" style="rounded=0;whiteSpace=wrap;html=1;" vertex="1" parent="1">
          <mxGeometry x="1680" width="150" height="90" as="geometry" />
        </mxCell>
        <mxCell id="fMx6wqxQnJzOyqXqfQoJ-23" value="&lt;div&gt;&lt;br&gt;&lt;/div&gt;&lt;font style=&quot;&quot;&gt;&lt;span style=&quot;font-size: 200px; color: rgb(0, 0, 0);&quot;&gt;(&amp;nbsp;&lt;/span&gt;&lt;span style=&quot;color: rgb(0, 0, 0); font-size: 100px;&quot;&gt;\&amp;nbsp;&lt;/span&gt;&lt;/font&gt;&lt;span style=&quot;color: light-dark(rgb(0, 0, 0), rgb(237, 237, 237)); font-size: 200px; background-color: transparent;&quot;&gt;)&lt;/span&gt;&lt;div&gt;&lt;font color=&quot;#000000&quot;&gt;&lt;br&gt;&lt;/font&gt;&lt;div&gt;&lt;div&gt;&lt;div&gt;&lt;font style=&quot;font-size: 75px;&quot;&gt;&lt;span style=&quot;color: rgb(0, 0, 0);&quot;&gt;Qiblah direction&lt;/span&gt;&lt;/font&gt;&lt;/div&gt;&lt;/div&gt;&lt;div&gt;&lt;font style=&quot;font-size: 24px;&quot; color=&quot;#000000&quot;&gt;(works only on phone)&lt;/font&gt;&lt;/div&gt;&lt;/div&gt;&lt;/div&gt;&lt;div&gt;&lt;font style=&quot;font-size: 24px;&quot; color=&quot;#000000&quot;&gt;&lt;br&gt;&lt;/font&gt;&lt;/div&gt;&lt;div&gt;&lt;font style=&quot;font-size: 24px;&quot; color=&quot;#000000&quot;&gt;&lt;br&gt;&lt;/font&gt;&lt;/div&gt;&lt;div&gt;&lt;font style=&quot;font-size: 24px;&quot; color=&quot;#000000&quot;&gt;&lt;br&gt;&lt;/font&gt;&lt;/div&gt;&lt;div&gt;&lt;font style=&quot;font-size: 24px;&quot; color=&quot;#000000&quot;&gt;&lt;br&gt;&lt;/font&gt;&lt;/div&gt;&lt;div&gt;&lt;font style=&quot;font-size: 24px;&quot; color=&quot;#000000&quot;&gt;&lt;br&gt;&lt;/font&gt;&lt;/div&gt;&lt;div&gt;&lt;font style=&quot;font-size: 24px;&quot; color=&quot;#000000&quot;&gt;&lt;br&gt;&lt;/font&gt;&lt;/div&gt;&lt;div&gt;&lt;font style=&quot;font-size: 24px;&quot; color=&quot;#000000&quot;&gt;&lt;br&gt;&lt;/font&gt;&lt;/div&gt;&lt;div&gt;&lt;font style=&quot;font-size: 24px;&quot; color=&quot;#000000&quot;&gt;&lt;br&gt;&lt;/font&gt;&lt;/div&gt;&lt;div&gt;&lt;font style=&quot;font-size: 24px;&quot; color=&quot;#000000&quot;&gt;&lt;br&gt;&lt;/font&gt;&lt;/div&gt;&lt;div&gt;&lt;font style=&quot;font-size: 24px;&quot; color=&quot;#000000&quot;&gt;&lt;br&gt;&lt;/font&gt;&lt;/div&gt;&lt;div&gt;&lt;font style=&quot;font-size: 24px;&quot; color=&quot;#000000&quot;&gt;&lt;br&gt;&lt;/font&gt;&lt;/div&gt;&lt;div&gt;&lt;font style=&quot;font-size: 24px;&quot; color=&quot;#000000&quot;&gt;&lt;br&gt;&lt;/font&gt;&lt;/div&gt;&lt;div&gt;&lt;font style=&quot;font-size: 24px;&quot; color=&quot;#000000&quot;&gt;&lt;br&gt;&lt;/font&gt;&lt;/div&gt;&lt;div&gt;&lt;font style=&quot;font-size: 24px;&quot; color=&quot;#000000&quot;&gt;&lt;br&gt;&lt;/font&gt;&lt;/div&gt;&lt;div&gt;&lt;font style=&quot;font-size: 24px;&quot; color=&quot;#000000&quot;&gt;&lt;br&gt;&lt;/font&gt;&lt;/div&gt;&lt;div&gt;&lt;font style=&quot;font-size: 24px;&quot; color=&quot;#000000&quot;&gt;&lt;br&gt;&lt;/font&gt;&lt;/div&gt;&lt;div&gt;&lt;font style=&quot;font-size: 24px;&quot; color=&quot;#000000&quot;&gt;&lt;br&gt;&lt;/font&gt;&lt;/div&gt;&lt;div&gt;&lt;font style=&quot;font-size: 24px;&quot; color=&quot;#000000&quot;&gt;&lt;br&gt;&lt;/font&gt;&lt;/div&gt;&lt;div&gt;&lt;font style=&quot;font-size: 24px;&quot; color=&quot;#000000&quot;&gt;&lt;br&gt;&lt;/font&gt;&lt;/div&gt;&lt;div&gt;&lt;font style=&quot;font-size: 24px;&quot; color=&quot;#000000&quot;&gt;&lt;br&gt;&lt;/font&gt;&lt;/div&gt;&lt;div&gt;&lt;font style=&quot;font-size: 24px;&quot; color=&quot;#000000&quot;&gt;&lt;br&gt;&lt;/font&gt;&lt;/div&gt;&lt;div&gt;&lt;font style=&quot;font-size: 24px;&quot; color=&quot;#000000&quot;&gt;&lt;br&gt;&lt;/font&gt;&lt;/div&gt;" style="rounded=0;whiteSpace=wrap;html=1;fillColor=#f5f5f5;strokeColor=#666666;fontColor=#333333;" vertex="1" parent="1">
          <mxGeometry x="1920" y="240" width="830" height="940" as="geometry" />
        </mxCell>
        <mxCell id="fMx6wqxQnJzOyqXqfQoJ-24" value="&lt;span style=&quot;font-size: 26px;&quot;&gt;N&lt;/span&gt;" style="rounded=0;whiteSpace=wrap;html=1;fillColor=none;strokeColor=none;fontColor=#333333;gradientColor=none;" vertex="1" parent="1">
          <mxGeometry x="2310" y="240" width="50" height="55" as="geometry" />
        </mxCell>
        <mxCell id="fMx6wqxQnJzOyqXqfQoJ-25" value="&lt;span style=&quot;font-size: 26px;&quot;&gt;S&lt;/span&gt;" style="rounded=0;whiteSpace=wrap;html=1;fillColor=none;strokeColor=none;fontColor=#333333;gradientColor=none;" vertex="1" parent="1">
          <mxGeometry x="2330" y="410" width="50" height="55" as="geometry" />
        </mxCell>
        <mxCell id="fMx6wqxQnJzOyqXqfQoJ-26" value="&lt;span style=&quot;font-size: 26px;&quot;&gt;W&lt;/span&gt;" style="rounded=0;whiteSpace=wrap;html=1;fillColor=none;strokeColor=none;fontColor=#333333;gradientColor=none;" vertex="1" parent="1">
          <mxGeometry x="2270" y="327.5" width="50" height="55" as="geometry" />
        </mxCell>
        <mxCell id="fMx6wqxQnJzOyqXqfQoJ-27" value="&lt;span style=&quot;font-size: 26px;&quot;&gt;E&lt;/span&gt;" style="rounded=0;whiteSpace=wrap;html=1;fillColor=none;strokeColor=none;fontColor=#333333;gradientColor=none;" vertex="1" parent="1">
          <mxGeometry x="2370" y="327.5" width="50" height="55" as="geometry" />
        </mxCell>
        <mxCell id="fMx6wqxQnJzOyqXqfQoJ-29" value="" style="rounded=0;whiteSpace=wrap;html=1;" vertex="1" parent="1">
          <mxGeometry x="2840" y="10" width="830" height="1180" as="geometry" />
        </mxCell>
        <mxCell id="fMx6wqxQnJzOyqXqfQoJ-30" value="&lt;span style=&quot;font-size: 30px;&quot;&gt;Quran&lt;/span&gt;" style="rounded=0;whiteSpace=wrap;html=1;fillColor=#d5e8d4;strokeColor=#82b366;" vertex="1" parent="1">
          <mxGeometry x="2840" width="830" height="240" as="geometry" />
        </mxCell>
        <mxCell id="fMx6wqxQnJzOyqXqfQoJ-36" value="&lt;font style=&quot;font-size: 24px;&quot;&gt;click to go to different webpages&lt;/font&gt;" style="rounded=0;whiteSpace=wrap;html=1;" vertex="1" parent="1">
          <mxGeometry x="-370" y="330" width="300" height="260" as="geometry" />
        </mxCell>
        <mxCell id="fMx6wqxQnJzOyqXqfQoJ-45" style="edgeStyle=orthogonalEdgeStyle;rounded=0;orthogonalLoop=1;jettySize=auto;html=1;exitX=1;exitY=0.5;exitDx=0;exitDy=0;" edge="1" parent="1" source="fMx6wqxQnJzOyqXqfQoJ-44" target="fMx6wqxQnJzOyqXqfQoJ-46">
          <mxGeometry relative="1" as="geometry">
            <mxPoint x="3960" y="489.9999999999998" as="targetPoint" />
            <Array as="points">
              <mxPoint x="3670" y="410" />
              <mxPoint x="3760" y="410" />
              <mxPoint x="3760" y="515" />
            </Array>
          </mxGeometry>
        </mxCell>
        <mxCell id="A_oiCXXMqpX1s3CSDb4U-6" style="edgeStyle=orthogonalEdgeStyle;rounded=0;orthogonalLoop=1;jettySize=auto;html=1;exitX=1;exitY=0.5;exitDx=0;exitDy=0;" edge="1" parent="1" source="fMx6wqxQnJzOyqXqfQoJ-44" target="A_oiCXXMqpX1s3CSDb4U-7">
          <mxGeometry relative="1" as="geometry">
            <mxPoint x="4219.999999999999" y="90.00000000000023" as="targetPoint" />
            <Array as="points">
              <mxPoint x="3670" y="180" />
              <mxPoint x="3980" y="180" />
              <mxPoint x="3980" y="260" />
            </Array>
          </mxGeometry>
        </mxCell>
        <mxCell id="fMx6wqxQnJzOyqXqfQoJ-44" value="&lt;font style=&quot;font-size: 25px;&quot;&gt;Chapter 1 of the Quran&lt;/font&gt;&amp;nbsp;" style="rounded=0;whiteSpace=wrap;html=1;fillColor=#f5f5f5;fontColor=#333333;strokeColor=#666666;" vertex="1" parent="1">
          <mxGeometry x="2840" y="240" width="830" height="200" as="geometry" />
        </mxCell>
        <mxCell id="fMx6wqxQnJzOyqXqfQoJ-46" value="click to expand" style="rounded=0;whiteSpace=wrap;html=1;" vertex="1" parent="1">
          <mxGeometry x="3850" y="390" width="120" height="250" as="geometry" />
        </mxCell>
        <mxCell id="fMx6wqxQnJzOyqXqfQoJ-47" value="&lt;font style=&quot;font-size: 20px;&quot;&gt;Text of chapter 1&lt;/font&gt;" style="rounded=0;whiteSpace=wrap;html=1;" vertex="1" parent="1">
          <mxGeometry x="2840" y="440" width="830" height="220" as="geometry" />
        </mxCell>
        <mxCell id="A_oiCXXMqpX1s3CSDb4U-5" style="edgeStyle=orthogonalEdgeStyle;rounded=0;orthogonalLoop=1;jettySize=auto;html=1;exitX=1;exitY=0.5;exitDx=0;exitDy=0;entryX=0;entryY=0.5;entryDx=0;entryDy=0;" edge="1" parent="1" source="fMx6wqxQnJzOyqXqfQoJ-49" target="fMx6wqxQnJzOyqXqfQoJ-46">
          <mxGeometry relative="1" as="geometry" />
        </mxCell>
        <mxCell id="fMx6wqxQnJzOyqXqfQoJ-49" value="&lt;font style=&quot;font-size: 25px;&quot;&gt;other chapters of the Quran&amp;nbsp;&lt;/font&gt;" style="rounded=0;whiteSpace=wrap;html=1;fillColor=#f5f5f5;fontColor=#333333;strokeColor=#666666;" vertex="1" parent="1">
          <mxGeometry x="2840" y="660" width="830" height="160" as="geometry" />
        </mxCell>
        <mxCell id="fMx6wqxQnJzOyqXqfQoJ-50" value="&lt;font style=&quot;font-size: 17px;&quot;&gt;_&lt;/font&gt;&lt;div&gt;&lt;font style=&quot;font-size: 17px;&quot;&gt;_&lt;/font&gt;&lt;/div&gt;&lt;div&gt;&lt;font style=&quot;font-size: 17px;&quot;&gt;_&lt;/font&gt;&lt;/div&gt;" style="whiteSpace=wrap;html=1;" vertex="1" parent="1">
          <mxGeometry x="1000" width="50" height="70" as="geometry" />
        </mxCell>
        <mxCell id="fMx6wqxQnJzOyqXqfQoJ-51" value="&lt;font style=&quot;font-size: 17px;&quot;&gt;_&lt;/font&gt;&lt;div&gt;&lt;font style=&quot;font-size: 17px;&quot;&gt;_&lt;/font&gt;&lt;/div&gt;&lt;div&gt;&lt;font style=&quot;font-size: 17px;&quot;&gt;_&lt;/font&gt;&lt;/div&gt;" style="whiteSpace=wrap;html=1;" vertex="1" parent="1">
          <mxGeometry x="1920" width="50" height="70" as="geometry" />
        </mxCell>
        <mxCell id="fMx6wqxQnJzOyqXqfQoJ-52" value="&lt;font style=&quot;font-size: 17px;&quot;&gt;_&lt;/font&gt;&lt;div&gt;&lt;font style=&quot;font-size: 17px;&quot;&gt;_&lt;/font&gt;&lt;/div&gt;&lt;div&gt;&lt;font style=&quot;font-size: 17px;&quot;&gt;_&lt;/font&gt;&lt;/div&gt;" style="whiteSpace=wrap;html=1;" vertex="1" parent="1">
          <mxGeometry x="2840" width="50" height="70" as="geometry" />
        </mxCell>
        <mxCell id="fMx6wqxQnJzOyqXqfQoJ-54" style="edgeStyle=orthogonalEdgeStyle;rounded=0;orthogonalLoop=1;jettySize=auto;html=1;exitX=1;exitY=0.5;exitDx=0;exitDy=0;" edge="1" parent="1" source="fMx6wqxQnJzOyqXqfQoJ-53" target="fMx6wqxQnJzOyqXqfQoJ-55">
          <mxGeometry relative="1" as="geometry">
            <mxPoint x="-880.0000000000005" y="540" as="targetPoint" />
          </mxGeometry>
        </mxCell>
        <mxCell id="fMx6wqxQnJzOyqXqfQoJ-53" value="&lt;font style=&quot;font-size: 17px;&quot;&gt;_&lt;/font&gt;&lt;div&gt;&lt;font style=&quot;font-size: 17px;&quot;&gt;_&lt;/font&gt;&lt;/div&gt;&lt;div&gt;&lt;font style=&quot;font-size: 17px;&quot;&gt;_&lt;/font&gt;&lt;/div&gt;" style="whiteSpace=wrap;html=1;" vertex="1" parent="1">
          <mxGeometry x="-1000" y="240" width="50" height="70" as="geometry" />
        </mxCell>
        <mxCell id="fMx6wqxQnJzOyqXqfQoJ-56" style="edgeStyle=orthogonalEdgeStyle;rounded=0;orthogonalLoop=1;jettySize=auto;html=1;exitX=1;exitY=0.5;exitDx=0;exitDy=0;" edge="1" parent="1" source="fMx6wqxQnJzOyqXqfQoJ-55" target="fMx6wqxQnJzOyqXqfQoJ-57">
          <mxGeometry relative="1" as="geometry">
            <mxPoint x="-910.0000000000005" y="610" as="targetPoint" />
          </mxGeometry>
        </mxCell>
        <mxCell id="fMx6wqxQnJzOyqXqfQoJ-55" value="&amp;nbsp;click expand/ click again to collapse&amp;nbsp;" style="rounded=0;whiteSpace=wrap;html=1;" vertex="1" parent="1">
          <mxGeometry x="-1180" y="490" width="70" height="60" as="geometry" />
        </mxCell>
        <mxCell id="fMx6wqxQnJzOyqXqfQoJ-57" value="" style="rounded=0;whiteSpace=wrap;html=1;" vertex="1" parent="1">
          <mxGeometry x="-860" y="165" width="200" height="940" as="geometry" />
        </mxCell>
        <mxCell id="-fsawPVUWkPRRmqvCutC-23" style="edgeStyle=orthogonalEdgeStyle;rounded=0;orthogonalLoop=1;jettySize=auto;html=1;exitX=0.5;exitY=0;exitDx=0;exitDy=0;" edge="1" parent="1" source="fMx6wqxQnJzOyqXqfQoJ-58" target="-fsawPVUWkPRRmqvCutC-20">
          <mxGeometry relative="1" as="geometry" />
        </mxCell>
        <mxCell id="fMx6wqxQnJzOyqXqfQoJ-58" value="&lt;font style=&quot;font-size: 26px;&quot;&gt;Search&amp;nbsp;&lt;/font&gt;" style="rounded=0;whiteSpace=wrap;html=1;fillColor=#f5f5f5;fontColor=#333333;strokeColor=#666666;" vertex="1" parent="1">
          <mxGeometry x="-860" y="160" width="200" height="130" as="geometry" />
        </mxCell>
        <mxCell id="fMx6wqxQnJzOyqXqfQoJ-69" style="edgeStyle=orthogonalEdgeStyle;rounded=0;orthogonalLoop=1;jettySize=auto;html=1;exitX=1;exitY=0.5;exitDx=0;exitDy=0;entryX=0.5;entryY=0;entryDx=0;entryDy=0;" edge="1" parent="1" source="fMx6wqxQnJzOyqXqfQoJ-59" target="fMx6wqxQnJzOyqXqfQoJ-68">
          <mxGeometry relative="1" as="geometry" />
        </mxCell>
        <mxCell id="fMx6wqxQnJzOyqXqfQoJ-59" value="Prayer page" style="rounded=0;whiteSpace=wrap;html=1;" vertex="1" parent="1">
          <mxGeometry x="-860" y="290" width="200" height="80" as="geometry" />
        </mxCell>
        <mxCell id="fMx6wqxQnJzOyqXqfQoJ-70" style="edgeStyle=orthogonalEdgeStyle;rounded=0;orthogonalLoop=1;jettySize=auto;html=1;exitX=1;exitY=0.5;exitDx=0;exitDy=0;" edge="1" parent="1" source="fMx6wqxQnJzOyqXqfQoJ-60">
          <mxGeometry relative="1" as="geometry">
            <mxPoint x="-430.00000000000045" y="940" as="targetPoint" />
          </mxGeometry>
        </mxCell>
        <mxCell id="fMx6wqxQnJzOyqXqfQoJ-60" value="Quran" style="rounded=0;whiteSpace=wrap;html=1;" vertex="1" parent="1">
          <mxGeometry x="-860" y="370" width="200" height="70" as="geometry" />
        </mxCell>
        <mxCell id="fMx6wqxQnJzOyqXqfQoJ-71" style="edgeStyle=orthogonalEdgeStyle;rounded=0;orthogonalLoop=1;jettySize=auto;html=1;exitX=1;exitY=0.5;exitDx=0;exitDy=0;" edge="1" parent="1" source="fMx6wqxQnJzOyqXqfQoJ-61" target="fMx6wqxQnJzOyqXqfQoJ-68">
          <mxGeometry relative="1" as="geometry" />
        </mxCell>
        <mxCell id="fMx6wqxQnJzOyqXqfQoJ-61" value="Navigation&amp;nbsp;" style="rounded=0;whiteSpace=wrap;html=1;" vertex="1" parent="1">
          <mxGeometry x="-860" y="440" width="200" height="70" as="geometry" />
        </mxCell>
        <mxCell id="fMx6wqxQnJzOyqXqfQoJ-73" style="edgeStyle=orthogonalEdgeStyle;rounded=0;orthogonalLoop=1;jettySize=auto;html=1;exitX=1;exitY=0.5;exitDx=0;exitDy=0;entryX=0.5;entryY=0;entryDx=0;entryDy=0;" edge="1" parent="1" source="fMx6wqxQnJzOyqXqfQoJ-62" target="fMx6wqxQnJzOyqXqfQoJ-68">
          <mxGeometry relative="1" as="geometry" />
        </mxCell>
        <mxCell id="fMx6wqxQnJzOyqXqfQoJ-62" value="community prage" style="rounded=0;whiteSpace=wrap;html=1;" vertex="1" parent="1">
          <mxGeometry x="-860" y="510" width="200" height="60" as="geometry" />
        </mxCell>
        <mxCell id="fMx6wqxQnJzOyqXqfQoJ-68" value="&lt;font style=&quot;font-size: 21px;&quot;&gt;link to go to different page&lt;/font&gt;" style="rounded=0;whiteSpace=wrap;html=1;" vertex="1" parent="1">
          <mxGeometry x="-590" y="940" width="320" height="170" as="geometry" />
        </mxCell>
        <mxCell id="iSZPZbHc6knosvzS08QK-3" value="&lt;font style=&quot;font-size: 23px;&quot;&gt;click on it to go to the link web&lt;/font&gt;" style="rounded=0;whiteSpace=wrap;html=1;" vertex="1" parent="1">
          <mxGeometry x="787.5" y="1230" width="250" height="110" as="geometry" />
        </mxCell>
        <mxCell id="-fsawPVUWkPRRmqvCutC-1" value="" style="rounded=0;whiteSpace=wrap;html=1;fillColor=#f5f5f5;strokeColor=#666666;fontColor=#333333;" vertex="1" parent="1">
          <mxGeometry y="1398" width="830" height="1002" as="geometry" />
        </mxCell>
        <mxCell id="-fsawPVUWkPRRmqvCutC-2" value="&lt;span style=&quot;font-size: 30px;&quot;&gt;text of supplications(Dua)&amp;nbsp;&lt;/span&gt;" style="rounded=0;whiteSpace=wrap;html=1;fillColor=#d5e8d4;strokeColor=#82b366;" vertex="1" parent="1">
          <mxGeometry x="-4" y="1398" width="830" height="240" as="geometry" />
        </mxCell>
        <mxCell id="-fsawPVUWkPRRmqvCutC-4" style="edgeStyle=orthogonalEdgeStyle;rounded=0;orthogonalLoop=1;jettySize=auto;html=1;exitX=1;exitY=0.5;exitDx=0;exitDy=0;" edge="1" parent="1" source="-fsawPVUWkPRRmqvCutC-3" target="-fsawPVUWkPRRmqvCutC-5">
          <mxGeometry relative="1" as="geometry">
            <mxPoint x="1080" y="1650" as="targetPoint" />
          </mxGeometry>
        </mxCell>
        <mxCell id="-fsawPVUWkPRRmqvCutC-3" value="&lt;span style=&quot;font-size: 25px;&quot;&gt;Narrated by the prophet.&lt;/span&gt;" style="rounded=0;whiteSpace=wrap;html=1;fillColor=#f5f5f5;fontColor=#333333;strokeColor=#666666;" vertex="1" parent="1">
          <mxGeometry y="1630" width="830" height="200" as="geometry" />
        </mxCell>
        <mxCell id="-fsawPVUWkPRRmqvCutC-5" value="&lt;font style=&quot;font-size: 30px;&quot;&gt;click to expand&lt;/font&gt;" style="rounded=0;whiteSpace=wrap;html=1;" vertex="1" parent="1">
          <mxGeometry x="1020" y="1370" width="310" height="180" as="geometry" />
        </mxCell>
        <mxCell id="-fsawPVUWkPRRmqvCutC-7" value="&lt;span style=&quot;font-size: 30px;&quot;&gt;has the ability to move to random&lt;/span&gt;&lt;div&gt;&lt;span style=&quot;font-size: 30px;&quot;&gt;(and when clicked it will go to it and momentarily highlight)&amp;nbsp;&lt;/span&gt;&lt;/div&gt;" style="rounded=0;whiteSpace=wrap;html=1;" vertex="1" parent="1">
          <mxGeometry x="1460" y="1370" width="410" height="210" as="geometry" />
        </mxCell>
        <mxCell id="-fsawPVUWkPRRmqvCutC-12" style="edgeStyle=orthogonalEdgeStyle;rounded=0;orthogonalLoop=1;jettySize=auto;html=1;exitX=1;exitY=0.5;exitDx=0;exitDy=0;entryX=0;entryY=0.5;entryDx=0;entryDy=0;" edge="1" parent="1" source="-fsawPVUWkPRRmqvCutC-10" target="-fsawPVUWkPRRmqvCutC-5">
          <mxGeometry relative="1" as="geometry" />
        </mxCell>
        <mxCell id="-fsawPVUWkPRRmqvCutC-10" value="&lt;span style=&quot;font-size: 25px;&quot;&gt;supplications to say when you sleep&lt;/span&gt;" style="rounded=0;whiteSpace=wrap;html=1;fillColor=#f5f5f5;fontColor=#333333;strokeColor=#666666;" vertex="1" parent="1">
          <mxGeometry y="1830" width="830" height="200" as="geometry" />
        </mxCell>
        <mxCell id="-fsawPVUWkPRRmqvCutC-13" style="edgeStyle=orthogonalEdgeStyle;rounded=0;orthogonalLoop=1;jettySize=auto;html=1;exitX=1;exitY=0.5;exitDx=0;exitDy=0;entryX=0;entryY=0.5;entryDx=0;entryDy=0;" edge="1" parent="1" source="-fsawPVUWkPRRmqvCutC-11" target="-fsawPVUWkPRRmqvCutC-5">
          <mxGeometry relative="1" as="geometry" />
        </mxCell>
        <mxCell id="-fsawPVUWkPRRmqvCutC-11" value="&lt;span style=&quot;font-size: 25px;&quot;&gt;supplications to say when you wake up&lt;/span&gt;" style="rounded=0;whiteSpace=wrap;html=1;fillColor=#f5f5f5;fontColor=#333333;strokeColor=#666666;" vertex="1" parent="1">
          <mxGeometry y="2030" width="830" height="200" as="geometry" />
        </mxCell>
        <mxCell id="-fsawPVUWkPRRmqvCutC-15" style="edgeStyle=orthogonalEdgeStyle;rounded=0;orthogonalLoop=1;jettySize=auto;html=1;exitX=1;exitY=0.5;exitDx=0;exitDy=0;entryX=0;entryY=0.5;entryDx=0;entryDy=0;" edge="1" parent="1" source="-fsawPVUWkPRRmqvCutC-14" target="-fsawPVUWkPRRmqvCutC-5">
          <mxGeometry relative="1" as="geometry" />
        </mxCell>
        <mxCell id="-fsawPVUWkPRRmqvCutC-14" value="&lt;span style=&quot;font-size: 25px;&quot;&gt;(And so on)&lt;/span&gt;" style="rounded=0;whiteSpace=wrap;html=1;fillColor=#f5f5f5;fontColor=#333333;strokeColor=#666666;" vertex="1" parent="1">
          <mxGeometry x="-2.5" y="2230" width="830" height="170" as="geometry" />
        </mxCell>
        <mxCell id="-fsawPVUWkPRRmqvCutC-17" value="&lt;span style=&quot;color: rgb(51, 51, 51);&quot;&gt;&lt;font style=&quot;font-size: 33px;&quot;&gt;Articles&amp;nbsp;&lt;/font&gt;&lt;/span&gt;" style="rounded=0;whiteSpace=wrap;html=1;fillColor=#d5e8d4;strokeColor=#82b366;" vertex="1" parent="1">
          <mxGeometry x="1920" y="1250" width="830" height="240" as="geometry" />
        </mxCell>
        <mxCell id="-fsawPVUWkPRRmqvCutC-19" value="&lt;span style=&quot;color: rgb(51, 51, 51);&quot;&gt;&lt;font style=&quot;font-size: 37px;&quot;&gt;Articles&amp;nbsp;&lt;/font&gt;&lt;/span&gt;" style="rounded=0;whiteSpace=wrap;html=1;" vertex="1" parent="1">
          <mxGeometry x="1920" y="1490" width="830" height="950" as="geometry" />
        </mxCell>
        <mxCell id="-fsawPVUWkPRRmqvCutC-27" style="edgeStyle=orthogonalEdgeStyle;rounded=0;orthogonalLoop=1;jettySize=auto;html=1;exitX=0.5;exitY=1;exitDx=0;exitDy=0;entryX=0.5;entryY=0;entryDx=0;entryDy=0;" edge="1" parent="1" source="-fsawPVUWkPRRmqvCutC-20" target="-fsawPVUWkPRRmqvCutC-25">
          <mxGeometry relative="1" as="geometry" />
        </mxCell>
        <mxCell id="-fsawPVUWkPRRmqvCutC-20" value="&lt;div&gt;&lt;font style=&quot;font-size: 17px;&quot;&gt;click to open&amp;nbsp;&lt;/font&gt;&lt;/div&gt;" style="rounded=0;whiteSpace=wrap;html=1;" vertex="1" parent="1">
          <mxGeometry x="-1580" y="530" width="280" height="110" as="geometry" />
        </mxCell>
        <mxCell id="-fsawPVUWkPRRmqvCutC-26" style="edgeStyle=orthogonalEdgeStyle;rounded=0;orthogonalLoop=1;jettySize=auto;html=1;exitX=0.5;exitY=1;exitDx=0;exitDy=0;" edge="1" parent="1" source="-fsawPVUWkPRRmqvCutC-25">
          <mxGeometry relative="1" as="geometry">
            <mxPoint x="-1350" y="950" as="targetPoint" />
          </mxGeometry>
        </mxCell>
        <mxCell id="-fsawPVUWkPRRmqvCutC-25" value="search&amp;nbsp;" style="rounded=1;whiteSpace=wrap;html=1;" vertex="1" parent="1">
          <mxGeometry x="-1500" y="782.5" width="300" height="60" as="geometry" />
        </mxCell>
        <mxCell id="-fsawPVUWkPRRmqvCutC-35" value="&lt;font style=&quot;font-size: 16px;&quot;&gt;The ability to write any key word to be able to find what the users looking for.&amp;nbsp;&lt;/font&gt;" style="rounded=0;whiteSpace=wrap;html=1;" vertex="1" parent="1">
          <mxGeometry x="-1410" y="949" width="250" height="121" as="geometry" />
        </mxCell>
        <mxCell id="-fsawPVUWkPRRmqvCutC-36" value="" style="rounded=0;whiteSpace=wrap;html=1;" vertex="1" parent="1">
          <mxGeometry x="2850" y="1280" width="830" height="1180" as="geometry" />
        </mxCell>
        <mxCell id="-fsawPVUWkPRRmqvCutC-37" value="&lt;span style=&quot;color: rgb(51, 51, 51);&quot;&gt;&lt;font style=&quot;font-size: 33px;&quot;&gt;Community support&lt;/font&gt;&lt;/span&gt;" style="rounded=0;whiteSpace=wrap;html=1;fillColor=#d5e8d4;strokeColor=#82b366;" vertex="1" parent="1">
          <mxGeometry x="2850" y="1270" width="830" height="240" as="geometry" />
        </mxCell>
        <mxCell id="-fsawPVUWkPRRmqvCutC-38" value="&lt;font color=&quot;#333333&quot;&gt;&lt;span style=&quot;font-size: 33px;&quot;&gt;this would be a chat room where they would be able to send emails to me about any type of questions they have&amp;nbsp;&lt;/span&gt;&lt;/font&gt;" style="rounded=0;whiteSpace=wrap;html=1;" vertex="1" parent="1">
          <mxGeometry x="2850" y="1510" width="830" height="950" as="geometry" />
        </mxCell>
        <mxCell id="A_oiCXXMqpX1s3CSDb4U-1" value="Click to find nearest mosque that&#39;s open&lt;div&gt;works only on phone and some PC&#39;s&lt;/div&gt;" style="rounded=0;whiteSpace=wrap;html=1;fillColor=#008a00;strokeColor=#005700;fontColor=#ffffff;" vertex="1" parent="1">
          <mxGeometry x="1920" y="690" width="830" height="320" as="geometry" />
        </mxCell>
        <mxCell id="A_oiCXXMqpX1s3CSDb4U-2" value="" style="rounded=0;whiteSpace=wrap;html=1;" vertex="1" parent="1">
          <mxGeometry x="1920" y="1010" width="830" height="170" as="geometry" />
        </mxCell>
        <mxCell id="A_oiCXXMqpX1s3CSDb4U-3" value="click here to find the nearest halal food place&lt;div&gt;&lt;br&gt;&lt;/div&gt;" style="rounded=0;whiteSpace=wrap;html=1;" vertex="1" parent="1">
          <mxGeometry x="1920" y="1010" width="830" height="170" as="geometry" />
        </mxCell>
        <mxCell id="A_oiCXXMqpX1s3CSDb4U-7" value="will include a video to along with it" style="rounded=1;whiteSpace=wrap;html=1;" vertex="1" parent="1">
          <mxGeometry x="3680" y="230" width="260" height="140" as="geometry" />
        </mxCell>
      </root>
    </mxGraphModel>
  </diagram>
</mxfile>
